<?xml version="1.0" encoding="UTF-8" standalone="no"?>
<!DOCTYPE svg PUBLIC "-//W3C//DTD SVG 1.1//EN" "http://www.w3.org/Graphics/SVG/1.1/DTD/svg11.dtd">
<svg xmlns="http://www.w3.org/2000/svg" version="1.1" viewBox="0.00 0.00 2094.00 720.00">
<path fill="#ffffff" d="
  M 1703.32 486.67
  Q 1709.00 489.18 1712.50 489.41
  C 1716.44 489.66 1720.92 489.65 1724.34 491.17
  C 1739.07 497.69 1734.16 520.24 1717.50 520.23
  C 1671.81 520.21 1652.70 489.30 1652.68 447.25
  Q 1652.61 233.13 1652.63 19.00
  C 1652.63 1.16 1677.14 -4.98 1684.10 12.07
  Q 1685.53 15.57 1685.53 23.14
  Q 1685.53 234.32 1685.42 445.50
  C 1685.41 459.85 1688.37 480.07 1703.32 486.67
  Z"
/>
<path fill="#ffffff" d="
  M 649.35 501.25
  C 647.54 524.72 636.82 546.13 619.36 561.59
  Q 614.81 565.63 603.28 573.45
  Q 486.95 652.44 366.49 709.42
  Q 334.09 724.75 300.18 713.71
  Q 293.73 711.61 281.81 705.84
  Q 156.52 645.22 45.52 568.73
  Q 14.55 547.39 7.71 510.90
  Q 6.57 504.82 5.59 491.02
  Q -4.11 355.39 6.38 219.75
  C 8.51 192.28 22.81 168.02 45.46 152.48
  Q 159.29 74.37 283.58 14.40
  Q 295.15 8.82 302.03 6.78
  Q 329.70 -1.44 356.96 7.86
  Q 362.89 9.88 375.26 15.88
  Q 497.86 75.38 610.25 152.52
  C 632.98 168.13 647.19 192.25 649.33 219.75
  Q 660.26 359.95 649.35 501.25
  Z
  M 340.77 40.47
  C 328.36 37.44 315.62 38.88 303.97 44.46
  Q 228.11 80.76 156.66 123.71
  Q 154.55 124.98 156.88 124.18
  Q 262.12 87.94 372.62 67.34
  Q 384.13 65.20 395.16 66.70
  Q 397.14 66.97 395.37 66.06
  Q 377.52 56.86 358.93 47.89
  Q 346.41 41.85 340.77 40.47
  Z
  M 613.30 221.63
  C 612.30 209.26 606.92 197.81 598.58 189.26
  Q 594.55 185.13 582.76 177.12
  Q 516.82 132.35 447.49 93.95
  Q 445.69 92.95 447.24 94.30
  Q 531.15 167.49 604.14 252.86
  Q 611.59 261.58 615.84 271.60
  Q 616.64 273.49 616.54 271.44
  Q 615.35 246.91 613.30 221.63
  Z
  M 69.77 412.25
  C 68.26 420.40 69.51 428.93 72.92 436.06
  Q 75.31 441.04 84.84 452.03
  Q 155.12 533.14 236.22 603.41
  Q 247.09 612.82 252.21 615.30
  Q 263.40 620.72 276.37 618.34
  Q 384.57 598.49 491.74 561.45
  Q 505.40 556.73 510.08 553.63
  Q 521.00 546.40 525.65 533.24
  Q 564.01 424.70 585.45 310.00
  Q 589.10 290.49 576.77 276.02
  Q 502.03 188.33 412.10 111.63
  Q 397.47 99.15 378.63 102.64
  Q 270.00 122.73 163.69 159.45
  Q 150.11 164.15 145.39 167.35
  Q 134.17 174.99 129.17 189.44
  Q 90.20 302.11 69.77 412.25
  Z
  M 41.61 231.36
  Q 35.77 310.63 37.21 389.27
  Q 37.26 392.39 37.86 389.33
  Q 59.07 280.79 96.41 175.28
  Q 100.40 164.02 107.30 154.99
  Q 108.24 153.76 106.94 154.60
  Q 85.88 168.18 64.88 182.62
  Q 49.20 193.41 44.23 211.55
  Q 42.65 217.32 41.61 231.36
  Z
  M 598.44 531.87
  C 607.00 523.13 612.33 511.46 613.34 498.74
  Q 620.03 414.39 618.42 331.03
  Q 618.38 328.79 617.94 330.99
  Q 596.42 440.64 559.25 545.73
  Q 555.26 557.00 548.26 566.16
  Q 547.41 567.29 548.59 566.52
  Q 565.60 555.59 582.60 544.02
  Q 594.39 536.00 598.44 531.87
  Z
  M 39.20 449.57
  C 39.82 465.29 40.88 481.07 41.97 496.75
  Q 43.42 517.85 57.26 531.91
  Q 61.40 536.12 73.09 544.04
  Q 138.95 588.70 207.95 626.95
  Q 210.24 628.21 208.27 626.50
  Q 124.24 553.33 51.16 467.60
  Q 43.87 459.05 39.86 449.43
  Q 39.12 447.67 39.20 449.57
  Z
  M 261.89 654.49
  Q 260.69 654.36 260.18 654.39
  Q 259.16 654.47 260.07 654.93
  Q 278.09 664.20 296.53 673.12
  Q 308.98 679.13 315.00 680.65
  Q 333.58 685.33 351.30 676.82
  Q 427.50 640.25 499.28 597.30
  Q 501.12 596.20 499.09 596.89
  Q 392.97 633.26 281.98 653.78
  Q 271.99 655.62 261.89 654.49
  Z"
/>
<path fill="#ffffff" d="
  M 1462.49 337.20
  A 0.45 0.44 -90.0 0 0 1462.93 336.75
  Q 1463.01 312.19 1462.91 287.63
  C 1462.85 273.35 1460.02 260.94 1448.55 251.20
  Q 1436.57 241.03 1424.62 236.47
  Q 1409.72 230.78 1393.76 229.92
  C 1362.24 228.23 1332.62 237.30 1305.61 253.11
  Q 1301.38 255.59 1298.98 256.15
  C 1291.66 257.88 1283.73 253.71 1280.35 247.38
  C 1277.59 242.23 1278.86 234.02 1282.31 229.32
  Q 1284.37 226.52 1289.91 223.01
  Q 1311.04 209.64 1335.49 203.69
  C 1375.36 194.00 1423.34 194.04 1458.59 217.22
  C 1474.18 227.48 1486.15 241.41 1493.43 258.57
  C 1498.09 269.52 1498.09 278.21 1498.10 292.29
  Q 1498.16 385.39 1498.10 478.50
  C 1498.09 487.72 1493.41 495.59 1485.79 500.53
  Q 1482.75 502.50 1475.93 504.75
  Q 1422.62 522.31 1366.24 519.60
  C 1317.28 517.25 1270.44 496.20 1261.17 442.75
  Q 1258.74 428.73 1259.27 413.24
  Q 1260.02 391.22 1275.27 375.27
  Q 1282.16 368.06 1287.60 363.37
  Q 1303.79 349.41 1324.52 344.00
  Q 1350.80 337.13 1378.00 337.17
  Q 1420.34 337.23 1462.49 337.20
  Z
  M 1354.75 487.03
  C 1390.16 491.05 1428.00 486.37 1462.42 475.35
  Q 1462.87 475.20 1462.87 474.72
  L 1462.87 370.26
  Q 1462.87 369.97 1462.58 369.97
  Q 1420.00 369.93 1377.69 369.99
  C 1353.70 370.03 1326.89 373.53 1309.23 391.77
  C 1291.01 410.59 1291.50 446.62 1309.33 465.68
  C 1320.70 477.83 1338.20 485.15 1354.75 487.03
  Z"
/>
<path fill="#ffffff" d="
  M 931.44 236.86
  A 0.51 0.50 -8.6 0 0 931.08 237.34
  Q 931.25 371.13 931.41 505.00
  C 931.43 520.94 912.91 529.24 901.18 518.07
  Q 895.96 513.10 895.95 506.00
  Q 895.65 371.33 895.46 236.66
  Q 895.45 229.03 896.80 225.00
  C 900.81 213.03 911.57 208.44 923.48 205.33
  C 954.64 197.20 987.78 197.31 1019.74 197.92
  Q 1045.66 198.42 1068.96 208.66
  C 1112.74 227.90 1134.36 270.84 1134.53 317.25
  Q 1134.88 407.63 1135.04 498.01
  Q 1135.05 505.70 1133.63 509.30
  C 1129.36 520.12 1115.42 523.52 1106.11 516.12
  Q 1099.14 510.59 1099.15 501.50
  Q 1099.28 406.25 1099.02 311.00
  Q 1098.98 295.77 1093.88 280.83
  C 1085.71 256.94 1067.95 239.93 1043.24 233.31
  C 1031.04 230.04 1021.00 229.92 1005.84 229.72
  Q 991.05 229.52 976.25 229.76
  Q 953.29 230.13 931.44 236.86
  Z"
/>
<path fill="#ffffff" d="
  M 1819.60 315.51
  C 1828.08 259.57 1858.78 215.56 1916.78 203.91
  Q 1954.53 196.34 1991.75 203.54
  C 2050.99 215.00 2081.92 260.15 2090.09 317.00
  Q 2096.57 362.12 2089.23 406.25
  Q 2085.79 426.91 2076.94 446.96
  C 2057.16 491.78 2018.22 514.02 1970.51 517.64
  C 1915.85 521.78 1862.60 505.79 1835.97 454.01
  Q 1827.61 437.76 1823.27 419.99
  C 1815.03 386.33 1814.41 349.69 1819.60 315.51
  Z
  M 1850.67 336.50
  C 1846.13 391.98 1854.52 466.79 1919.02 485.11
  Q 1930.75 488.44 1944.00 489.45
  C 1976.73 491.92 2011.54 484.30 2033.05 457.25
  C 2047.05 439.64 2054.19 416.98 2057.10 394.75
  C 2060.79 366.55 2060.45 337.14 2054.56 309.26
  C 2047.33 275.03 2029.28 246.77 1994.93 235.03
  C 1972.87 227.49 1946.73 226.70 1923.26 232.30
  C 1872.29 244.45 1854.51 289.46 1850.67 336.50
  Z"
/>
</svg>
